<mxfile host="app.diagrams.net" agent="Mozilla/5.0 (Windows NT 10.0; Win64; x64) AppleWebKit/537.36 (KHTML, like Gecko) Chrome/140.0.0.0 Safari/537.36" version="28.2.4">
  <diagram name="페이지-1" id="-EwEHcfmUey3o_NJkJMT">
    <mxGraphModel dx="609" dy="591" grid="1" gridSize="10" guides="1" tooltips="1" connect="1" arrows="1" fold="1" page="1" pageScale="1" pageWidth="827" pageHeight="1169" math="0" shadow="0">
      <root>
        <mxCell id="0" />
        <mxCell id="1" parent="0" />
        <mxCell id="6isz4zTJkeE2gkNPyrPs-16" value="" style="rounded=0;whiteSpace=wrap;html=1;strokeColor=none;" vertex="1" parent="1">
          <mxGeometry x="1390" y="390" width="380" height="280" as="geometry" />
        </mxCell>
        <mxCell id="FPqu00Cx_U8efenu1ebw-24" value="" style="rounded=0;whiteSpace=wrap;html=1;strokeColor=none;" parent="1" vertex="1">
          <mxGeometry x="510" y="190" width="420" height="280" as="geometry" />
        </mxCell>
        <mxCell id="k8pgKplh2NUj_0fQmyHl-85" value="" style="rounded=0;whiteSpace=wrap;html=1;strokeColor=none;" parent="1" vertex="1">
          <mxGeometry x="510" y="590" width="670" height="370" as="geometry" />
        </mxCell>
        <mxCell id="k8pgKplh2NUj_0fQmyHl-36" value="" style="rounded=0;whiteSpace=wrap;html=1;strokeColor=none;" parent="1" vertex="1">
          <mxGeometry x="70" y="630" width="340" height="420" as="geometry" />
        </mxCell>
        <mxCell id="k8pgKplh2NUj_0fQmyHl-23" value="" style="rounded=0;whiteSpace=wrap;html=1;strokeColor=none;" parent="1" vertex="1">
          <mxGeometry x="70" y="380" width="340" height="200" as="geometry" />
        </mxCell>
        <mxCell id="k8pgKplh2NUj_0fQmyHl-21" value="" style="rounded=0;whiteSpace=wrap;html=1;strokeColor=none;" parent="1" vertex="1">
          <mxGeometry x="70" y="190" width="340" height="100" as="geometry" />
        </mxCell>
        <mxCell id="k8pgKplh2NUj_0fQmyHl-2" value="" style="rounded=1;whiteSpace=wrap;html=1;" parent="1" vertex="1">
          <mxGeometry x="320" y="490" width="80" height="40" as="geometry" />
        </mxCell>
        <mxCell id="k8pgKplh2NUj_0fQmyHl-3" value="" style="rounded=1;whiteSpace=wrap;html=1;" parent="1" vertex="1">
          <mxGeometry x="320" y="530" width="80" height="40" as="geometry" />
        </mxCell>
        <mxCell id="k8pgKplh2NUj_0fQmyHl-5" value="이미 타일이 깔린 구간" style="rounded=0;whiteSpace=wrap;html=1;fillColor=#f5f5f5;strokeColor=#666666;fontColor=#333333;" parent="1" vertex="1">
          <mxGeometry x="80" y="490" width="240" height="80" as="geometry" />
        </mxCell>
        <mxCell id="k8pgKplh2NUj_0fQmyHl-6" value="이미 타일이 깔린 구간" style="rounded=0;whiteSpace=wrap;html=1;fillColor=#f5f5f5;strokeColor=#666666;fontColor=#333333;" parent="1" vertex="1">
          <mxGeometry x="80" y="390" width="280" height="80" as="geometry" />
        </mxCell>
        <mxCell id="k8pgKplh2NUj_0fQmyHl-7" value="" style="rounded=1;whiteSpace=wrap;html=1;" parent="1" vertex="1">
          <mxGeometry x="360" y="390" width="40" height="80" as="geometry" />
        </mxCell>
        <mxCell id="k8pgKplh2NUj_0fQmyHl-11" value="" style="rounded=1;whiteSpace=wrap;html=1;" parent="1" vertex="1">
          <mxGeometry x="320" y="240" width="80" height="40" as="geometry" />
        </mxCell>
        <mxCell id="k8pgKplh2NUj_0fQmyHl-12" value="" style="rounded=1;whiteSpace=wrap;html=1;" parent="1" vertex="1">
          <mxGeometry x="280" y="200" width="80" height="40" as="geometry" />
        </mxCell>
        <mxCell id="k8pgKplh2NUj_0fQmyHl-13" value="" style="rounded=1;whiteSpace=wrap;html=1;" parent="1" vertex="1">
          <mxGeometry x="240" y="240" width="80" height="40" as="geometry" />
        </mxCell>
        <mxCell id="k8pgKplh2NUj_0fQmyHl-14" value="" style="rounded=1;whiteSpace=wrap;html=1;" parent="1" vertex="1">
          <mxGeometry x="200" y="200" width="80" height="40" as="geometry" />
        </mxCell>
        <mxCell id="k8pgKplh2NUj_0fQmyHl-15" value="" style="rounded=1;whiteSpace=wrap;html=1;" parent="1" vertex="1">
          <mxGeometry x="160" y="240" width="80" height="40" as="geometry" />
        </mxCell>
        <mxCell id="k8pgKplh2NUj_0fQmyHl-18" value="" style="shape=waypoint;sketch=0;fillStyle=solid;size=6;pointerEvents=1;points=[];fillColor=none;resizable=0;rotatable=0;perimeter=centerPerimeter;snapToPoint=1;" parent="1" vertex="1">
          <mxGeometry x="130" y="230" width="20" height="20" as="geometry" />
        </mxCell>
        <mxCell id="k8pgKplh2NUj_0fQmyHl-19" value="" style="shape=waypoint;sketch=0;fillStyle=solid;size=6;pointerEvents=1;points=[];fillColor=none;resizable=0;rotatable=0;perimeter=centerPerimeter;snapToPoint=1;" parent="1" vertex="1">
          <mxGeometry x="110" y="230" width="20" height="20" as="geometry" />
        </mxCell>
        <mxCell id="k8pgKplh2NUj_0fQmyHl-20" value="" style="shape=waypoint;sketch=0;fillStyle=solid;size=6;pointerEvents=1;points=[];fillColor=none;resizable=0;rotatable=0;perimeter=centerPerimeter;snapToPoint=1;" parent="1" vertex="1">
          <mxGeometry x="90" y="230" width="20" height="20" as="geometry" />
        </mxCell>
        <mxCell id="k8pgKplh2NUj_0fQmyHl-22" value="" style="rounded=1;whiteSpace=wrap;html=1;fillColor=#f8cecc;strokeColor=#b85450;" parent="1" vertex="1">
          <mxGeometry x="360" y="200" width="40" height="40" as="geometry" />
        </mxCell>
        <mxCell id="k8pgKplh2NUj_0fQmyHl-24" value="" style="rounded=1;whiteSpace=wrap;html=1;" parent="1" vertex="1">
          <mxGeometry x="320" y="640" width="80" height="40" as="geometry" />
        </mxCell>
        <mxCell id="k8pgKplh2NUj_0fQmyHl-25" value="" style="rounded=1;whiteSpace=wrap;html=1;" parent="1" vertex="1">
          <mxGeometry x="320" y="680" width="80" height="40" as="geometry" />
        </mxCell>
        <mxCell id="k8pgKplh2NUj_0fQmyHl-26" value="" style="rounded=1;whiteSpace=wrap;html=1;" parent="1" vertex="1">
          <mxGeometry x="320" y="720" width="80" height="40" as="geometry" />
        </mxCell>
        <mxCell id="k8pgKplh2NUj_0fQmyHl-27" value="이미 타일이 깔린 구간" style="rounded=0;whiteSpace=wrap;html=1;fillColor=#f5f5f5;strokeColor=#666666;fontColor=#333333;" parent="1" vertex="1">
          <mxGeometry x="80" y="640" width="240" height="120" as="geometry" />
        </mxCell>
        <mxCell id="k8pgKplh2NUj_0fQmyHl-28" value="이미 타일이 깔린 구간" style="rounded=0;whiteSpace=wrap;html=1;fillColor=#f5f5f5;strokeColor=#666666;fontColor=#333333;" parent="1" vertex="1">
          <mxGeometry x="80" y="780" width="240" height="120" as="geometry" />
        </mxCell>
        <mxCell id="k8pgKplh2NUj_0fQmyHl-29" value="" style="rounded=1;whiteSpace=wrap;html=1;" parent="1" vertex="1">
          <mxGeometry x="320" y="780" width="80" height="40" as="geometry" />
        </mxCell>
        <mxCell id="k8pgKplh2NUj_0fQmyHl-30" value="" style="rounded=1;whiteSpace=wrap;html=1;" parent="1" vertex="1">
          <mxGeometry x="320" y="820" width="40" height="80" as="geometry" />
        </mxCell>
        <mxCell id="k8pgKplh2NUj_0fQmyHl-31" value="" style="rounded=1;whiteSpace=wrap;html=1;" parent="1" vertex="1">
          <mxGeometry x="360" y="820" width="40" height="80" as="geometry" />
        </mxCell>
        <mxCell id="k8pgKplh2NUj_0fQmyHl-32" value="이미 타일이 깔린 구간" style="rounded=0;whiteSpace=wrap;html=1;fillColor=#f5f5f5;strokeColor=#666666;fontColor=#333333;" parent="1" vertex="1">
          <mxGeometry x="80" y="920" width="240" height="120" as="geometry" />
        </mxCell>
        <mxCell id="k8pgKplh2NUj_0fQmyHl-33" value="" style="rounded=1;whiteSpace=wrap;html=1;" parent="1" vertex="1">
          <mxGeometry x="320" y="1000" width="80" height="40" as="geometry" />
        </mxCell>
        <mxCell id="k8pgKplh2NUj_0fQmyHl-34" value="" style="rounded=1;whiteSpace=wrap;html=1;" parent="1" vertex="1">
          <mxGeometry x="320" y="920" width="40" height="80" as="geometry" />
        </mxCell>
        <mxCell id="k8pgKplh2NUj_0fQmyHl-35" value="" style="rounded=1;whiteSpace=wrap;html=1;" parent="1" vertex="1">
          <mxGeometry x="360" y="920" width="40" height="80" as="geometry" />
        </mxCell>
        <mxCell id="k8pgKplh2NUj_0fQmyHl-37" value="" style="rounded=1;whiteSpace=wrap;html=1;" parent="1" vertex="1">
          <mxGeometry x="520" y="640" width="80" height="40" as="geometry" />
        </mxCell>
        <mxCell id="k8pgKplh2NUj_0fQmyHl-38" value="" style="rounded=1;whiteSpace=wrap;html=1;" parent="1" vertex="1">
          <mxGeometry x="520" y="680" width="80" height="40" as="geometry" />
        </mxCell>
        <mxCell id="k8pgKplh2NUj_0fQmyHl-39" value="" style="rounded=1;whiteSpace=wrap;html=1;" parent="1" vertex="1">
          <mxGeometry x="520" y="720" width="80" height="40" as="geometry" />
        </mxCell>
        <mxCell id="k8pgKplh2NUj_0fQmyHl-40" value="길이가 2인 모듈" style="text;html=1;align=center;verticalAlign=middle;whiteSpace=wrap;rounded=0;strokeColor=#d6b656;fillColor=#fff2cc;" parent="1" vertex="1">
          <mxGeometry x="520" y="600" width="280" height="30" as="geometry" />
        </mxCell>
        <mxCell id="k8pgKplh2NUj_0fQmyHl-41" value="" style="rounded=1;whiteSpace=wrap;html=1;" parent="1" vertex="1">
          <mxGeometry x="620" y="640" width="80" height="40" as="geometry" />
        </mxCell>
        <mxCell id="k8pgKplh2NUj_0fQmyHl-42" value="" style="rounded=1;whiteSpace=wrap;html=1;" parent="1" vertex="1">
          <mxGeometry x="620" y="680" width="40" height="80" as="geometry" />
        </mxCell>
        <mxCell id="k8pgKplh2NUj_0fQmyHl-43" value="" style="rounded=1;whiteSpace=wrap;html=1;" parent="1" vertex="1">
          <mxGeometry x="660" y="680" width="40" height="80" as="geometry" />
        </mxCell>
        <mxCell id="k8pgKplh2NUj_0fQmyHl-44" value="" style="rounded=1;whiteSpace=wrap;html=1;" parent="1" vertex="1">
          <mxGeometry x="720" y="720" width="80" height="40" as="geometry" />
        </mxCell>
        <mxCell id="k8pgKplh2NUj_0fQmyHl-45" value="" style="rounded=1;whiteSpace=wrap;html=1;" parent="1" vertex="1">
          <mxGeometry x="720" y="640" width="40" height="80" as="geometry" />
        </mxCell>
        <mxCell id="k8pgKplh2NUj_0fQmyHl-46" value="" style="rounded=1;whiteSpace=wrap;html=1;" parent="1" vertex="1">
          <mxGeometry x="760" y="640" width="40" height="80" as="geometry" />
        </mxCell>
        <mxCell id="k8pgKplh2NUj_0fQmyHl-47" value="길이가 4인 모듈" style="text;html=1;align=center;verticalAlign=middle;whiteSpace=wrap;rounded=0;strokeColor=#d6b656;fillColor=#fff2cc;" parent="1" vertex="1">
          <mxGeometry x="830" y="600" width="340" height="30" as="geometry" />
        </mxCell>
        <mxCell id="k8pgKplh2NUj_0fQmyHl-48" value="" style="rounded=1;whiteSpace=wrap;html=1;" parent="1" vertex="1">
          <mxGeometry x="830" y="640" width="80" height="40" as="geometry" />
        </mxCell>
        <mxCell id="k8pgKplh2NUj_0fQmyHl-49" value="" style="rounded=1;whiteSpace=wrap;html=1;" parent="1" vertex="1">
          <mxGeometry x="830" y="680" width="40" height="80" as="geometry" />
        </mxCell>
        <mxCell id="k8pgKplh2NUj_0fQmyHl-50" value="" style="rounded=1;whiteSpace=wrap;html=1;" parent="1" vertex="1">
          <mxGeometry x="950" y="680" width="40" height="80" as="geometry" />
        </mxCell>
        <mxCell id="k8pgKplh2NUj_0fQmyHl-51" value="" style="rounded=1;whiteSpace=wrap;html=1;" parent="1" vertex="1">
          <mxGeometry x="870" y="720" width="80" height="40" as="geometry" />
        </mxCell>
        <mxCell id="k8pgKplh2NUj_0fQmyHl-52" value="" style="rounded=1;whiteSpace=wrap;html=1;" parent="1" vertex="1">
          <mxGeometry x="870" y="680" width="80" height="40" as="geometry" />
        </mxCell>
        <mxCell id="k8pgKplh2NUj_0fQmyHl-54" value="" style="rounded=1;whiteSpace=wrap;html=1;" parent="1" vertex="1">
          <mxGeometry x="910" y="640" width="80" height="40" as="geometry" />
        </mxCell>
        <mxCell id="k8pgKplh2NUj_0fQmyHl-55" value="" style="rounded=1;whiteSpace=wrap;html=1;" parent="1" vertex="1">
          <mxGeometry x="1010" y="720" width="80" height="40" as="geometry" />
        </mxCell>
        <mxCell id="k8pgKplh2NUj_0fQmyHl-56" value="" style="rounded=1;whiteSpace=wrap;html=1;" parent="1" vertex="1">
          <mxGeometry x="1010" y="640" width="40" height="80" as="geometry" />
        </mxCell>
        <mxCell id="k8pgKplh2NUj_0fQmyHl-57" value="" style="rounded=1;whiteSpace=wrap;html=1;" parent="1" vertex="1">
          <mxGeometry x="1130" y="640" width="40" height="80" as="geometry" />
        </mxCell>
        <mxCell id="k8pgKplh2NUj_0fQmyHl-58" value="" style="rounded=1;whiteSpace=wrap;html=1;" parent="1" vertex="1">
          <mxGeometry x="1050" y="680" width="80" height="40" as="geometry" />
        </mxCell>
        <mxCell id="k8pgKplh2NUj_0fQmyHl-59" value="" style="rounded=1;whiteSpace=wrap;html=1;" parent="1" vertex="1">
          <mxGeometry x="1050" y="640" width="80" height="40" as="geometry" />
        </mxCell>
        <mxCell id="k8pgKplh2NUj_0fQmyHl-60" value="" style="rounded=1;whiteSpace=wrap;html=1;" parent="1" vertex="1">
          <mxGeometry x="1090" y="720" width="80" height="40" as="geometry" />
        </mxCell>
        <mxCell id="k8pgKplh2NUj_0fQmyHl-61" value="" style="rounded=1;whiteSpace=wrap;html=1;" parent="1" vertex="1">
          <mxGeometry x="520" y="830" width="80" height="40" as="geometry" />
        </mxCell>
        <mxCell id="k8pgKplh2NUj_0fQmyHl-62" value="" style="rounded=1;whiteSpace=wrap;html=1;" parent="1" vertex="1">
          <mxGeometry x="520" y="870" width="40" height="80" as="geometry" />
        </mxCell>
        <mxCell id="k8pgKplh2NUj_0fQmyHl-64" value="" style="rounded=1;whiteSpace=wrap;html=1;" parent="1" vertex="1">
          <mxGeometry x="560" y="910" width="80" height="40" as="geometry" />
        </mxCell>
        <mxCell id="k8pgKplh2NUj_0fQmyHl-65" value="" style="rounded=1;whiteSpace=wrap;html=1;" parent="1" vertex="1">
          <mxGeometry x="560" y="870" width="80" height="40" as="geometry" />
        </mxCell>
        <mxCell id="k8pgKplh2NUj_0fQmyHl-66" value="" style="rounded=1;whiteSpace=wrap;html=1;" parent="1" vertex="1">
          <mxGeometry x="600" y="830" width="80" height="40" as="geometry" />
        </mxCell>
        <mxCell id="k8pgKplh2NUj_0fQmyHl-68" value="" style="rounded=1;whiteSpace=wrap;html=1;" parent="1" vertex="1">
          <mxGeometry x="720" y="870" width="40" height="80" as="geometry" />
        </mxCell>
        <mxCell id="k8pgKplh2NUj_0fQmyHl-69" value="" style="rounded=1;whiteSpace=wrap;html=1;" parent="1" vertex="1">
          <mxGeometry x="640" y="910" width="80" height="40" as="geometry" />
        </mxCell>
        <mxCell id="k8pgKplh2NUj_0fQmyHl-70" value="" style="rounded=1;whiteSpace=wrap;html=1;" parent="1" vertex="1">
          <mxGeometry x="640" y="870" width="80" height="40" as="geometry" />
        </mxCell>
        <mxCell id="k8pgKplh2NUj_0fQmyHl-71" value="" style="rounded=1;whiteSpace=wrap;html=1;" parent="1" vertex="1">
          <mxGeometry x="680" y="830" width="80" height="40" as="geometry" />
        </mxCell>
        <mxCell id="k8pgKplh2NUj_0fQmyHl-72" value="" style="rounded=1;whiteSpace=wrap;html=1;" parent="1" vertex="1">
          <mxGeometry x="780" y="910" width="80" height="40" as="geometry" />
        </mxCell>
        <mxCell id="k8pgKplh2NUj_0fQmyHl-73" value="" style="rounded=1;whiteSpace=wrap;html=1;" parent="1" vertex="1">
          <mxGeometry x="780" y="830" width="40" height="80" as="geometry" />
        </mxCell>
        <mxCell id="k8pgKplh2NUj_0fQmyHl-74" value="" style="rounded=1;whiteSpace=wrap;html=1;" parent="1" vertex="1">
          <mxGeometry x="820" y="870" width="80" height="40" as="geometry" />
        </mxCell>
        <mxCell id="k8pgKplh2NUj_0fQmyHl-75" value="" style="rounded=1;whiteSpace=wrap;html=1;" parent="1" vertex="1">
          <mxGeometry x="820" y="830" width="80" height="40" as="geometry" />
        </mxCell>
        <mxCell id="k8pgKplh2NUj_0fQmyHl-76" value="" style="rounded=1;whiteSpace=wrap;html=1;" parent="1" vertex="1">
          <mxGeometry x="860" y="910" width="80" height="40" as="geometry" />
        </mxCell>
        <mxCell id="k8pgKplh2NUj_0fQmyHl-77" value="" style="rounded=1;whiteSpace=wrap;html=1;" parent="1" vertex="1">
          <mxGeometry x="980" y="830" width="40" height="80" as="geometry" />
        </mxCell>
        <mxCell id="k8pgKplh2NUj_0fQmyHl-78" value="" style="rounded=1;whiteSpace=wrap;html=1;" parent="1" vertex="1">
          <mxGeometry x="900" y="870" width="80" height="40" as="geometry" />
        </mxCell>
        <mxCell id="k8pgKplh2NUj_0fQmyHl-79" value="" style="rounded=1;whiteSpace=wrap;html=1;" parent="1" vertex="1">
          <mxGeometry x="900" y="830" width="80" height="40" as="geometry" />
        </mxCell>
        <mxCell id="k8pgKplh2NUj_0fQmyHl-80" value="" style="rounded=1;whiteSpace=wrap;html=1;" parent="1" vertex="1">
          <mxGeometry x="940" y="910" width="80" height="40" as="geometry" />
        </mxCell>
        <mxCell id="k8pgKplh2NUj_0fQmyHl-81" value="길이가 6인 모듈" style="text;html=1;align=center;verticalAlign=middle;whiteSpace=wrap;rounded=0;strokeColor=#d6b656;fillColor=#fff2cc;" parent="1" vertex="1">
          <mxGeometry x="520" y="790" width="500" height="30" as="geometry" />
        </mxCell>
        <mxCell id="k8pgKplh2NUj_0fQmyHl-82" value="" style="shape=waypoint;sketch=0;fillStyle=solid;size=6;pointerEvents=1;points=[];fillColor=none;resizable=0;rotatable=0;perimeter=centerPerimeter;snapToPoint=1;" parent="1" vertex="1">
          <mxGeometry x="1110" y="860" width="20" height="20" as="geometry" />
        </mxCell>
        <mxCell id="k8pgKplh2NUj_0fQmyHl-83" value="" style="shape=waypoint;sketch=0;fillStyle=solid;size=6;pointerEvents=1;points=[];fillColor=none;resizable=0;rotatable=0;perimeter=centerPerimeter;snapToPoint=1;" parent="1" vertex="1">
          <mxGeometry x="1090" y="860" width="20" height="20" as="geometry" />
        </mxCell>
        <mxCell id="k8pgKplh2NUj_0fQmyHl-84" value="" style="shape=waypoint;sketch=0;fillStyle=solid;size=6;pointerEvents=1;points=[];fillColor=none;resizable=0;rotatable=0;perimeter=centerPerimeter;snapToPoint=1;" parent="1" vertex="1">
          <mxGeometry x="1070" y="860" width="20" height="20" as="geometry" />
        </mxCell>
        <mxCell id="FPqu00Cx_U8efenu1ebw-1" value="" style="rounded=0;whiteSpace=wrap;html=1;fillColor=#f5f5f5;strokeColor=#666666;fontColor=#333333;" parent="1" vertex="1">
          <mxGeometry x="520" y="200" width="400" height="120" as="geometry" />
        </mxCell>
        <mxCell id="FPqu00Cx_U8efenu1ebw-2" value="3 * 4 보드를 채우는&lt;div&gt;모든 방법&lt;/div&gt;" style="rounded=1;whiteSpace=wrap;html=1;fillColor=#f5f5f5;fontColor=#333333;strokeColor=#666666;" parent="1" vertex="1">
          <mxGeometry x="520" y="200" width="160" height="120" as="geometry" />
        </mxCell>
        <mxCell id="FPqu00Cx_U8efenu1ebw-4" value="" style="rounded=1;whiteSpace=wrap;html=1;" parent="1" vertex="1">
          <mxGeometry x="680" y="200" width="80" height="40" as="geometry" />
        </mxCell>
        <mxCell id="FPqu00Cx_U8efenu1ebw-5" value="" style="rounded=1;whiteSpace=wrap;html=1;" parent="1" vertex="1">
          <mxGeometry x="680" y="240" width="40" height="80" as="geometry" />
        </mxCell>
        <mxCell id="FPqu00Cx_U8efenu1ebw-6" value="" style="rounded=1;whiteSpace=wrap;html=1;" parent="1" vertex="1">
          <mxGeometry x="720" y="280" width="80" height="40" as="geometry" />
        </mxCell>
        <mxCell id="FPqu00Cx_U8efenu1ebw-7" value="" style="rounded=1;whiteSpace=wrap;html=1;" parent="1" vertex="1">
          <mxGeometry x="720" y="240" width="80" height="40" as="geometry" />
        </mxCell>
        <mxCell id="FPqu00Cx_U8efenu1ebw-8" value="" style="rounded=1;whiteSpace=wrap;html=1;" parent="1" vertex="1">
          <mxGeometry x="760" y="200" width="80" height="40" as="geometry" />
        </mxCell>
        <mxCell id="FPqu00Cx_U8efenu1ebw-9" value="" style="rounded=1;whiteSpace=wrap;html=1;" parent="1" vertex="1">
          <mxGeometry x="880" y="240" width="40" height="80" as="geometry" />
        </mxCell>
        <mxCell id="FPqu00Cx_U8efenu1ebw-10" value="" style="rounded=1;whiteSpace=wrap;html=1;" parent="1" vertex="1">
          <mxGeometry x="800" y="280" width="80" height="40" as="geometry" />
        </mxCell>
        <mxCell id="FPqu00Cx_U8efenu1ebw-11" value="" style="rounded=1;whiteSpace=wrap;html=1;" parent="1" vertex="1">
          <mxGeometry x="800" y="240" width="80" height="40" as="geometry" />
        </mxCell>
        <mxCell id="FPqu00Cx_U8efenu1ebw-12" value="" style="rounded=1;whiteSpace=wrap;html=1;" parent="1" vertex="1">
          <mxGeometry x="840" y="200" width="80" height="40" as="geometry" />
        </mxCell>
        <mxCell id="FPqu00Cx_U8efenu1ebw-13" value="" style="rounded=0;whiteSpace=wrap;html=1;fillColor=#f5f5f5;strokeColor=#666666;fontColor=#333333;" parent="1" vertex="1">
          <mxGeometry x="520" y="340" width="400" height="120" as="geometry" />
        </mxCell>
        <mxCell id="FPqu00Cx_U8efenu1ebw-14" value="3 * 4 보드를 채우는&lt;div&gt;모든 방법&lt;/div&gt;" style="rounded=1;whiteSpace=wrap;html=1;fillColor=#f5f5f5;fontColor=#333333;strokeColor=#666666;" parent="1" vertex="1">
          <mxGeometry x="520" y="340" width="160" height="120" as="geometry" />
        </mxCell>
        <mxCell id="FPqu00Cx_U8efenu1ebw-15" value="" style="rounded=1;whiteSpace=wrap;html=1;" parent="1" vertex="1">
          <mxGeometry x="680" y="420" width="80" height="40" as="geometry" />
        </mxCell>
        <mxCell id="FPqu00Cx_U8efenu1ebw-16" value="" style="rounded=1;whiteSpace=wrap;html=1;" parent="1" vertex="1">
          <mxGeometry x="680" y="340" width="40" height="80" as="geometry" />
        </mxCell>
        <mxCell id="FPqu00Cx_U8efenu1ebw-17" value="" style="rounded=1;whiteSpace=wrap;html=1;" parent="1" vertex="1">
          <mxGeometry x="720" y="380" width="80" height="40" as="geometry" />
        </mxCell>
        <mxCell id="FPqu00Cx_U8efenu1ebw-18" value="" style="rounded=1;whiteSpace=wrap;html=1;" parent="1" vertex="1">
          <mxGeometry x="720" y="340" width="80" height="40" as="geometry" />
        </mxCell>
        <mxCell id="FPqu00Cx_U8efenu1ebw-19" value="" style="rounded=1;whiteSpace=wrap;html=1;" parent="1" vertex="1">
          <mxGeometry x="760" y="420" width="80" height="40" as="geometry" />
        </mxCell>
        <mxCell id="FPqu00Cx_U8efenu1ebw-20" value="" style="rounded=1;whiteSpace=wrap;html=1;" parent="1" vertex="1">
          <mxGeometry x="880" y="340" width="40" height="80" as="geometry" />
        </mxCell>
        <mxCell id="FPqu00Cx_U8efenu1ebw-21" value="" style="rounded=1;whiteSpace=wrap;html=1;" parent="1" vertex="1">
          <mxGeometry x="800" y="380" width="80" height="40" as="geometry" />
        </mxCell>
        <mxCell id="FPqu00Cx_U8efenu1ebw-22" value="" style="rounded=1;whiteSpace=wrap;html=1;" parent="1" vertex="1">
          <mxGeometry x="800" y="340" width="80" height="40" as="geometry" />
        </mxCell>
        <mxCell id="FPqu00Cx_U8efenu1ebw-23" value="" style="rounded=1;whiteSpace=wrap;html=1;" parent="1" vertex="1">
          <mxGeometry x="840" y="420" width="80" height="40" as="geometry" />
        </mxCell>
        <mxCell id="6isz4zTJkeE2gkNPyrPs-1" value="" style="rounded=0;whiteSpace=wrap;html=1;fillColor=#f5f5f5;strokeColor=#666666;fontColor=#333333;" vertex="1" parent="1">
          <mxGeometry x="1400" y="400" width="360" height="120" as="geometry" />
        </mxCell>
        <mxCell id="6isz4zTJkeE2gkNPyrPs-2" value="3 * 4 보드를 채우는&lt;div&gt;모든 방법&lt;/div&gt;" style="rounded=1;whiteSpace=wrap;html=1;fillColor=#f5f5f5;fontColor=#333333;strokeColor=#666666;" vertex="1" parent="1">
          <mxGeometry x="1250" y="240" width="160" height="120" as="geometry" />
        </mxCell>
        <mxCell id="6isz4zTJkeE2gkNPyrPs-3" value="g(n//2 - x)" style="rounded=1;whiteSpace=wrap;html=1;" vertex="1" parent="1">
          <mxGeometry x="1400" y="400" width="160" height="120" as="geometry" />
        </mxCell>
        <mxCell id="6isz4zTJkeE2gkNPyrPs-7" value="" style="rounded=1;whiteSpace=wrap;html=1;fillColor=#f8cecc;strokeColor=#b85450;" vertex="1" parent="1">
          <mxGeometry x="1480" y="400" width="80" height="40" as="geometry" />
        </mxCell>
        <mxCell id="6isz4zTJkeE2gkNPyrPs-11" value="g(x)" style="rounded=1;whiteSpace=wrap;html=1;" vertex="1" parent="1">
          <mxGeometry x="1560" y="400" width="200" height="120" as="geometry" />
        </mxCell>
        <mxCell id="6isz4zTJkeE2gkNPyrPs-13" value="" style="rounded=1;whiteSpace=wrap;html=1;fillColor=#647687;fontColor=#ffffff;strokeColor=#314354;" vertex="1" parent="1">
          <mxGeometry x="1520" y="440" width="40" height="40" as="geometry" />
        </mxCell>
        <mxCell id="6isz4zTJkeE2gkNPyrPs-17" value="" style="rounded=0;whiteSpace=wrap;html=1;fillColor=#f5f5f5;strokeColor=#666666;fontColor=#333333;" vertex="1" parent="1">
          <mxGeometry x="1420" y="770" width="360" height="120" as="geometry" />
        </mxCell>
        <mxCell id="6isz4zTJkeE2gkNPyrPs-18" value="" style="rounded=0;whiteSpace=wrap;html=1;fillColor=#f5f5f5;strokeColor=#666666;fontColor=#333333;" vertex="1" parent="1">
          <mxGeometry x="1400" y="540" width="360" height="120" as="geometry" />
        </mxCell>
        <mxCell id="6isz4zTJkeE2gkNPyrPs-19" value="g(n//2 - x)" style="rounded=1;whiteSpace=wrap;html=1;" vertex="1" parent="1">
          <mxGeometry x="1400" y="540" width="160" height="120" as="geometry" />
        </mxCell>
        <mxCell id="6isz4zTJkeE2gkNPyrPs-21" value="g(x)" style="rounded=1;whiteSpace=wrap;html=1;" vertex="1" parent="1">
          <mxGeometry x="1560" y="540" width="200" height="120" as="geometry" />
        </mxCell>
        <mxCell id="6isz4zTJkeE2gkNPyrPs-22" value="" style="rounded=1;whiteSpace=wrap;html=1;fillColor=#647687;fontColor=#ffffff;strokeColor=#314354;" vertex="1" parent="1">
          <mxGeometry x="1520" y="580" width="40" height="40" as="geometry" />
        </mxCell>
        <mxCell id="6isz4zTJkeE2gkNPyrPs-23" value="" style="rounded=1;whiteSpace=wrap;html=1;fillColor=#f8cecc;strokeColor=#b85450;" vertex="1" parent="1">
          <mxGeometry x="1480" y="620" width="80" height="40" as="geometry" />
        </mxCell>
        <mxCell id="6isz4zTJkeE2gkNPyrPs-20" value="" style="rounded=1;whiteSpace=wrap;html=1;fillColor=#f8cecc;strokeColor=#b85450;" vertex="1" parent="1">
          <mxGeometry x="1520" y="540" width="80" height="40" as="geometry" />
        </mxCell>
        <mxCell id="6isz4zTJkeE2gkNPyrPs-24" value="" style="rounded=0;whiteSpace=wrap;html=1;fillColor=#f5f5f5;strokeColor=#666666;fontColor=#333333;" vertex="1" parent="1">
          <mxGeometry x="1460" y="100" width="360" height="120" as="geometry" />
        </mxCell>
        <mxCell id="6isz4zTJkeE2gkNPyrPs-25" value="f(a)" style="rounded=1;whiteSpace=wrap;html=1;" vertex="1" parent="1">
          <mxGeometry x="1460" y="100" width="160" height="120" as="geometry" />
        </mxCell>
        <mxCell id="6isz4zTJkeE2gkNPyrPs-27" value="f(c)" style="rounded=1;whiteSpace=wrap;html=1;fillColor=#f8cecc;strokeColor=#b85450;" vertex="1" parent="1">
          <mxGeometry x="1660" y="100" width="160" height="120" as="geometry" />
        </mxCell>
        <mxCell id="6isz4zTJkeE2gkNPyrPs-28" value="" style="rounded=1;whiteSpace=wrap;html=1;fillColor=#647687;fontColor=#ffffff;strokeColor=#314354;" vertex="1" parent="1">
          <mxGeometry x="1620" y="100" width="40" height="40" as="geometry" />
        </mxCell>
        <mxCell id="6isz4zTJkeE2gkNPyrPs-30" value="b" style="rounded=1;whiteSpace=wrap;html=1;fillColor=#f8cecc;strokeColor=#b85450;" vertex="1" parent="1">
          <mxGeometry x="1620" y="140" width="40" height="80" as="geometry" />
        </mxCell>
        <mxCell id="6isz4zTJkeE2gkNPyrPs-36" value="" style="rounded=0;whiteSpace=wrap;html=1;fillColor=#f5f5f5;strokeColor=#666666;fontColor=#333333;" vertex="1" parent="1">
          <mxGeometry x="1460" y="230" width="360" height="120" as="geometry" />
        </mxCell>
        <mxCell id="6isz4zTJkeE2gkNPyrPs-37" value="f(a)" style="rounded=1;whiteSpace=wrap;html=1;" vertex="1" parent="1">
          <mxGeometry x="1460" y="230" width="160" height="120" as="geometry" />
        </mxCell>
        <mxCell id="6isz4zTJkeE2gkNPyrPs-38" value="g(c - 2)" style="rounded=1;whiteSpace=wrap;html=1;fillColor=#f8cecc;strokeColor=#b85450;" vertex="1" parent="1">
          <mxGeometry x="1660" y="230" width="160" height="120" as="geometry" />
        </mxCell>
        <mxCell id="6isz4zTJkeE2gkNPyrPs-39" value="" style="rounded=1;whiteSpace=wrap;html=1;fillColor=#647687;fontColor=#ffffff;strokeColor=#314354;" vertex="1" parent="1">
          <mxGeometry x="1620" y="230" width="40" height="40" as="geometry" />
        </mxCell>
        <mxCell id="6isz4zTJkeE2gkNPyrPs-40" value="b" style="rounded=1;whiteSpace=wrap;html=1;" vertex="1" parent="1">
          <mxGeometry x="1620" y="270" width="40" height="80" as="geometry" />
        </mxCell>
        <mxCell id="6isz4zTJkeE2gkNPyrPs-41" value="" style="rounded=1;whiteSpace=wrap;html=1;" vertex="1" parent="1">
          <mxGeometry x="1620" y="270" width="80" height="40" as="geometry" />
        </mxCell>
        <mxCell id="6isz4zTJkeE2gkNPyrPs-42" value="" style="rounded=1;whiteSpace=wrap;html=1;" vertex="1" parent="1">
          <mxGeometry x="1620" y="310" width="80" height="40" as="geometry" />
        </mxCell>
        <mxCell id="6isz4zTJkeE2gkNPyrPs-43" value="" style="rounded=1;whiteSpace=wrap;html=1;" vertex="1" parent="1">
          <mxGeometry x="1660" y="230" width="80" height="40" as="geometry" />
        </mxCell>
        <mxCell id="6isz4zTJkeE2gkNPyrPs-46" value="" style="rounded=1;whiteSpace=wrap;html=1;fillColor=#f8cecc;strokeColor=#b85450;" vertex="1" parent="1">
          <mxGeometry x="1520" y="480" width="80" height="40" as="geometry" />
        </mxCell>
      </root>
    </mxGraphModel>
  </diagram>
</mxfile>
